<svg width="24" height="24" viewBox="0 0 24 24" fill="none" xmlns="http://www.w3.org/2000/svg">
<path d="M10.25 10.5V16.5H8.75L8.75 10.5H10.25Z" fill="#141B34"/>
<path d="M15.25 16.5V10.5H13.75V16.5H15.25Z" fill="#141B34"/>
<path fill-rule="evenodd" clip-rule="evenodd" d="M9.5 1.25C9.19998 1.25 8.92883 1.4288 8.81064 1.70456L7.50545 4.75H2V6.25H3.79466L4.75195 22.0453C4.77595 22.4412 5.10399 22.75 5.50058 22.75H18.5006C18.8972 22.75 19.2252 22.4412 19.2492 22.0453L20.2065 6.25H22V4.75H16.4945L15.1894 1.70456C15.0712 1.4288 14.8 1.25 14.5 1.25H9.5ZM18.7037 6.25H5.29741L6.2065 21.25H17.7947L18.7037 6.25ZM14.8626 4.75H9.1374L9.99455 2.75H14.0055L14.8626 4.75Z" fill="#141B34"/>
</svg>
