<svg width="24" height="24" viewBox="0 0 24 24" fill="none" xmlns="http://www.w3.org/2000/svg">
<path opacity="0.4" d="M19.5825 15.6564C19.5058 16.9096 19.4449 17.9041 19.3202 18.6984C19.1922 19.5131 18.9874 20.1915 18.5777 20.7849C18.2029 21.3278 17.7204 21.786 17.1608 22.1303C16.5491 22.5067 15.8661 22.6713 15.0531 22.75L8.92739 22.7499C8.1135 22.671 7.42972 22.5061 6.8176 22.129C6.25763 21.7841 5.77494 21.3251 5.40028 20.7813C4.99073 20.1869 4.78656 19.5075 4.65957 18.6917C4.53574 17.8962 4.47623 16.9003 4.40122 15.6453L3.75 4.75H20.25L19.5825 15.6564Z" fill="#141B34"/>
<path fill-rule="evenodd" clip-rule="evenodd" d="M14.8996 1.84591C14.4435 1.50576 13.9124 1.33331 13.3473 1.28277C13.0006 1.25176 12.5848 1.2513 12.1233 1.2508C12.0826 1.25075 12.0415 1.25071 12 1.25064C11.9584 1.25057 11.9168 1.25046 11.8752 1.25035C11.4799 1.24931 11.0835 1.24826 10.6899 1.28409C10.1121 1.33669 9.57032 1.51626 9.10861 1.87046C8.76721 2.13237 8.53387 2.45207 8.33676 2.79754C8.15403 3.11782 7.97212 3.51696 7.76556 3.97016L7.40976 4.7507H3C2.44772 4.7507 2 5.19842 2 5.7507C2 6.30299 2.44772 6.7507 3 6.7507H21C21.5523 6.7507 22 6.30299 22 5.7507C22 5.19842 21.5523 4.7507 21 4.7507H16.6823L16.2555 3.8704C16.0437 3.4333 15.8569 3.04798 15.6714 2.73893C15.4712 2.40542 15.2369 2.09748 14.8996 1.84591ZM14.4597 4.7507H9.60776C9.81387 4.29897 9.94941 4.00687 10.0739 3.78866C10.2639 3.45568 10.4971 3.30991 10.8712 3.27585C11.137 3.25166 11.4837 3.2507 12.0345 3.2507C12.5719 3.2507 12.9098 3.25163 13.1691 3.27482C13.5339 3.30745 13.7643 3.44787 13.9566 3.7682C14.088 3.98707 14.233 4.28331 14.4597 4.7507Z" fill="#141B34"/>
<path d="M9.5 17.9648C9.08579 17.9648 8.75 17.6291 8.75 17.2148L8.75 11.2148C8.75 10.8006 9.08579 10.4648 9.5 10.4648C9.91421 10.4648 10.25 10.8006 10.25 11.2148V17.2148C10.25 17.6291 9.91421 17.9648 9.5 17.9648Z" fill="#141B34"/>
<path d="M14.5 10.4648C14.9142 10.4648 15.25 10.8006 15.25 11.2148V17.2148C15.25 17.6291 14.9142 17.9648 14.5 17.9648C14.0858 17.9648 13.75 17.6291 13.75 17.2148V11.2148C13.75 10.8006 14.0858 10.4648 14.5 10.4648Z" fill="#141B34"/>
</svg>
