<svg width="20" height="20" viewBox="0 0 20 20" fill="none" xmlns="http://www.w3.org/2000/svg">
<path d="M2.33714 3.57746C2.6063 3.54163 2.9363 3.54163 3.29713 3.54163H6.16797C8.15297 3.54163 9.79297 5.11079 9.79297 7.08329C9.79297 8.29996 9.1688 9.36413 8.22463 9.99996C9.1688 10.6358 9.79297 11.7 9.79297 12.9166C9.79297 14.8891 8.15297 16.4583 6.16797 16.4583H3.29463C2.93547 16.4583 2.60547 16.4583 2.33714 16.4225C2.04047 16.3825 1.72797 16.2883 1.47047 16.0308C1.21297 15.7733 1.1188 15.4608 1.0788 15.1641C1.04297 14.895 1.04297 14.565 1.04297 14.2041V5.79579C1.04297 5.43496 1.04297 5.10496 1.0788 4.83579C1.1188 4.53913 1.21297 4.22663 1.47047 3.96913C1.72797 3.71163 2.04047 3.61746 2.33714 3.57746ZM11.043 11.6666C11.043 9.63746 12.7988 7.70829 15.0013 7.70829C17.2038 7.70829 18.9596 9.63746 18.9596 11.6666C18.9596 12.0116 18.6796 12.2916 18.3346 12.2916H12.293V12.5C12.293 13.9958 13.5055 15.2083 15.0013 15.2083C16.003 15.2083 16.8788 14.665 17.348 13.8533C17.5205 13.555 17.903 13.4525 18.2013 13.6258C18.5005 13.7983 18.603 14.1808 18.4296 14.4791C17.7463 15.6608 16.4671 16.4583 15.0013 16.4583C12.8155 16.4583 11.043 14.6858 11.043 12.5V11.6666ZM6.16797 9.37496C7.4963 9.37496 8.54297 8.33246 8.54297 7.08329C8.54297 5.83413 7.4963 4.79163 6.16797 4.79163H3.33464C2.9238 4.79163 2.6788 4.79329 2.5038 4.81663C2.42297 4.82746 2.38297 4.83996 2.36464 4.84746C2.36047 4.84913 2.35797 4.85079 2.3563 4.85163L2.3538 4.85246L2.35297 4.85496C2.35214 4.85663 2.35047 4.85913 2.3488 4.86329C2.3413 4.88163 2.3288 4.92163 2.31797 5.00246C2.29464 5.17746 2.29297 5.42246 2.29297 5.83329V9.37496H6.16797ZM2.29297 10.625V14.1666C2.29297 14.5775 2.29464 14.8225 2.31797 14.9975C2.3288 15.0783 2.3413 15.1183 2.3488 15.1366C2.35047 15.1408 2.35214 15.1433 2.35297 15.145L2.3538 15.1475L2.3563 15.1483C2.35797 15.1491 2.36047 15.1508 2.36464 15.1525C2.38297 15.16 2.42297 15.1725 2.5038 15.1833C2.6788 15.2066 2.9238 15.2083 3.33464 15.2083H6.16797C7.4963 15.2083 8.54297 14.1658 8.54297 12.9166C8.54297 11.6675 7.4963 10.625 6.16797 10.625H2.29297ZM15.0013 8.95829C13.7496 8.95829 12.6763 9.91496 12.3763 11.0416H17.6263C17.3263 9.91496 16.253 8.95829 15.0013 8.95829ZM12.7096 5.83329C12.7096 5.48829 12.9896 5.20829 13.3346 5.20829H16.668C17.013 5.20829 17.293 5.48829 17.293 5.83329C17.293 6.17829 17.013 6.45829 16.668 6.45829H13.3346C12.9896 6.45829 12.7096 6.17829 12.7096 5.83329Z" fill="#7E7E7E"/>
</svg>
